# xmcd CD database file
# Copyright (C) 1993-1998 Ti Kan
#
# Track frame offsets:
#     183
#     17318
#     33920
#     52913
#     109765
#     126910
#     143815
#     157700
#     178815
#     200393
#
# Disc length: 2916 seconds
#
# Revision: 0
# Processed by: cddbd v1.4b41PL1 Copyright (c) Steve Scherf et al.
# Submitted via: Clarion 0.9.3
#
DISCID=760b620a
DTITLE=Bo Diddley - Hey Bo Diddley
DYEAR=1900
DGENRE=
TTITLE0=Mona
TTITLE1=You can't judge a book by looking at the cover
TTITLE2=Tonight is ours
TTITLE3=Hey Bo Diddley
TTITLE4=Road runner
TTITLE5=Say bossman
TTITLE6=Bring it to Jerome
TTITLE7=Somebody beat me
TTITLE8=I'm sorry
TTITLE9=Little girl
EXTD=
EXTT0=
EXTT1=
EXTT2=
EXTT3=
EXTT4=
EXTT5=
EXTT6=
EXTT7=
EXTT8=
EXTT9=
PLAYORDER=
